# xmcd
#
# Track frame offsets:
#	150
#	3111
#	11370
#	19067
#	28179
#	39371
#	62593
#	77950
#	94652
#	119796
#	138201
#	151352
#	161027
#	172092
#	185348
#	195356
#	208723
#	219435
#	230835
#	240201
#	255627
#	271489
#	284097
#	291313
#	298753
#	309967
#	320687
#	333585
#	352823
#
# Disc length: 4754 seconds
#
# Revision: 0
# Processed by: cddbd v1.5.1PL2 Copyright (c) Steve Scherf et al.
# Submitted via: EasyCDDAExtractor 9.0.0.1
#
DISCID=a812901d
DTITLE=Various Artist - Street Wars 4 [CD1]
DYEAR=2002
DGENRE=Hip-Hop
TTITLE0=Heatmakers - Intro
TTITLE1=Ryan Banks - SW4 Freestyle
TTITLE2=Jay-Z - Freestyle (Dissin Nas)
TTITLE3=Suge Knight - Speaks vs. Dmx
TTITLE4=Dmx - They Want War (Dissin Ja Rule)
TTITLE5=Dmx - Speaks vs. Ja Rule and Irv Gotti
TTITLE6=Nas - Purple (Dissin P. Diddy)
TTITLE7=Jaz-O - Ova (Dissin Jay-Z)
TTITLE8=Roc-A-Fella - Freestyle (Dissiin Jaz-O)
TTITLE9=Jaz-O - Freestyle (Dissin Jay-Z, Bleek, Freeway and Geda K)
TTITLE10=Jay-Z and Young Chris - Freestyle (Dissin Jaz-O and Nas)
TTITLE11=Jay-Z - Speaks vs. Nas
TTITLE12=Nas, Ja Rule and Ashanti - The Pledge (Remix) (Dissin Jay-Z, Snoop Dogg
TTITLE12=and Dmx)
TTITLE13=KRS-One - Ova Here (Remix) (Dissin Nelly)
TTITLE14=Xzibit - Freestyle (Dissin Jermaine Dupri)
TTITLE15=Betty Bezzil and Baredda - Freestyle (Dissin Lady May)
TTITLE16=DJ P-Cutta - Shout Outs
TTITLE17=Hard Money - Freestyle
TTITLE18=DJ Kay Slay - vs. Splash Pt. 2
TTITLE19=Lil' Wayne - Freestyle (Dissin Juvenile)
TTITLE20=Juvenile - A Hoe (Dissin Lil' Wayne)
TTITLE21=State Property - Freestyle (Dissin Nas)
TTITLE22=Bars and Hooks - Freestyle (Dissin State Property and Roc-A-Fella)
TTITLE23=DJ Kay Slay - vs. DJ Clue and DJ Envy
TTITLE24=DJ Doo Woop - Freestyle (Dissin DJ Kay Slay)
TTITLE25=Gilly Da Kid - Gilly Chill (Dissin Beanie Sigel)
TTITLE26=Cormega - Love In, Love Out (Dissin Nas)
TTITLE27=Mike Nitty - Fuck Dark Child Pt. 2 (Dissin Rodney Jerkins)
TTITLE28=DJ P-Cutta - Outro
EXTD=
EXTT0=
EXTT1=
EXTT2=
EXTT3=
EXTT4=
EXTT5=
EXTT6=
EXTT7=
EXTT8=
EXTT9=
EXTT10=
EXTT11=
EXTT12=
EXTT13=
EXTT14=
EXTT15=
EXTT16=
EXTT17=
EXTT18=
EXTT19=
EXTT20=
EXTT21=
EXTT22=
EXTT23=
EXTT24=
EXTT25=
EXTT26=
EXTT27=
EXTT28=
PLAYORDER=
